<svg id="Layer_1" xmlns="http://www.w3.org/2000/svg" viewBox="0 0 88 88"><style>.st0{fill:#06ab45}.st1{fill:#fff}</style><path d="M29.9 43.1h3.2v1.6h-3.2z"/><path d="M45.3 29v-1.8h2.2v-1.6h-6.3v1.6h2.4V29c-8.1.2-14.6 6.9-14.6 15 0 8.3 6.7 15 15 15s15-6.7 15-15c.1-8-6-14.4-13.7-15zm0 28.2v-2.7h-1.6v2.8c-7.2-.2-12.9-6.1-12.9-13.4 0-7.2 5.8-13.1 13-13.4V33h1.6v-2.4c6.8.6 12.2 6.3 12.2 13.3-.1 7-5.5 12.7-12.3 13.3z"/><path d="M43.7 42.8h-8.5v1.6h9.7v-.1h.4v-10h-1.6z"/><circle class="st0" cx="56.6" cy="50.8" r="5.8"/><path class="st1" d="M59.7 48.4c-.1-.1-.3-.1-.4 0l-3.8 3.8-1.5-1.5c-.1-.1-.3-.1-.4 0-.1.1-.1.3 0 .4l1.7 1.7c.1.1.3.1.4 0l4-4c.1-.1.1-.3 0-.4z"/></svg>