<svg id="Layer_1" xmlns="http://www.w3.org/2000/svg" viewBox="0 0 88 88"><style>.st0{fill:#06ab45}.st1{fill:#fff}</style><path d="M35.6 39.8c.3 0 .5-.1.5-.4.5-3.9 3.9-6.9 7.9-6.9s7.4 3 7.9 6.9c0 .2.2.4.5.4h.1c.3 0 .4-.3.4-.5-.3-2.1-1.3-4.1-2.9-5.5-1.6-1.4-3.7-2.2-5.9-2.2s-4.3.8-5.9 2.2c-1.6 1.4-2.7 3.4-2.9 5.5-.2.2 0 .4.3.5zm17.3 1.8c0-.3-.2-.5-.4-.5-.3 0-.5.2-.5.4-.5 4-3.9 7-7.9 7s-7.4-3-7.9-7c0-.3-.3-.4-.5-.4-.3 0-.4.3-.4.5.5 4.5 4.4 7.8 8.9 7.8 4.3 0 8.2-3.4 8.7-7.8z"/><path d="M41.3 43.4c-.3 0-.6.3-.6.6v1.4c0 .3.3.6.6.6h5.5c.3 0 .6-.3.6-.6V44c0-.3-.3-.6-.6-.6h-1.1v-8c0-.3-.3-.6-.6-.6h-1.6c-.1 0-.3.1-.4.1l-2.9 2.4c-.3.2-.3.6-.1.8l.9 1.2c.1.1.2.2.4.2s.3 0 .5-.1l.7-.5v4.5h-1.3zm1.9-5.7c-.2-.1-.5-.1-.6.1l-.9.8-.5-.7 2.5-2.1h1.1v8c0 .3.3.6.6.6h1.1v.8h-4.8v-.8H43c.3 0 .6-.3.6-.6v-5.5c0-.3-.2-.5-.4-.6z"/><path d="M56.8 55.2l-4.2-6.6c.5-.1.9-.4 1.2-.8.3-.5.5-1 .4-1.6-.1-.5.1-.9.6-1.2.5-.3.9-.7 1-1.3.2-.5.1-1.1-.2-1.6-.3-.4-.2-.9.1-1.3.4-.4.6-1 .5-1.5-.1-.6-.3-1.1-.8-1.4-.4-.3-.5-.8-.4-1.2.2-.5.2-1.1-.1-1.6-.3-.5-.7-.9-1.3-1-.5-.1-.8-.6-.8-1 0-.6-.2-1.1-.7-1.5-.4-.4-1-.6-1.5-.5-.5 0-.9-.2-1.1-.7-.2-.5-.6-.9-1.1-1.1-.5-.2-1.1-.2-1.6.1-.4.2-1 .1-1.3-.2-.4-.4-.9-.7-1.5-.7s-1.1.2-1.5.7c-.3.4-.8.5-1.3.2s-1.1-.3-1.6-.1c-.5.2-.9.6-1.2 1.1-.2.4-.6.7-1.1.7-.6-.1-1.1.1-1.5.5-.4.4-.7.9-.7 1.5 0 .5-.3.9-.8 1-.5.2-1 .5-1.3 1-.3.5-.3 1.1-.1 1.6.2.4 0 1-.4 1.2-.5.3-.7.9-.8 1.4-.1.6.1 1.1.5 1.5.3.4.4.9.1 1.3-.3.5-.4 1.1-.2 1.6s.5 1 1 1.3c.4.2.7.7.6 1.2-.1.6 0 1.1.4 1.6.3.4.7.7 1.2.8l-4.2 6.6c-.2.2-.2.5 0 .8.1.2.4.4.7.4l4.1-.4 1.4 3.9c.1.3.3.5.6.5h.1c.3 0 .5-.1.6-.3L44 52l5.2 8.1c.1.2.4.3.6.3h.1c.3 0 .5-.2.6-.5l1.4-3.9 4.1.4c.3 0 .6-.1.7-.4.2-.2.2-.5.1-.8zm-24.5.2l4.1-6.4c.1.1.3.3.3.6.1.4.3.8.6 1.1l-2.9 4.6-2.1.1zm4.9.7l-.2-.5c-.1-.3-.4-.5-.8-.5l-.7.1 2.6-4.1c.4.1.8.1 1.2 0 .3-.1.7 0 .9.2l-3 4.8zm1.1 3.1l-.7-2.1 3.3-5.2c.3.2.6.4 1 .5.3.1.6 0 .8 0l-4.4 6.8zm6-8.2h-.6c-.3 0-.6.2-.9.4-.2.2-.5.3-.8.2-.3-.1-.6-.2-.7-.5 0-.1-.1-.1-.1-.2-.5-.6-1.3-.9-2.1-.7-.3.1-.6 0-.9-.1-.3-.2-.4-.4-.5-.7-.1-.6-.5-1.2-1.1-1.4h-.1c-.2-.1-.4-.1-.6-.1-.3 0-.6-.2-.8-.4-.2-.2-.3-.5-.2-.8.2-.9-.3-1.8-1.1-2.2-.3-.1-.5-.4-.6-.7-.1-.3 0-.6.1-.9.5-.8.4-1.8-.2-2.4-.2-.2-.3-.5-.3-.8 0-.3.2-.6.4-.8.7-.5 1-1.5.7-2.3-.1-.3-.1-.6 0-.9.1-.3.4-.5.7-.6.9-.2 1.5-1 1.5-1.9 0-.3.1-.6.4-.8.2-.2.5-.3.8-.3.9.1 1.7-.4 2.1-1.3.1-.3.3-.5.6-.6s.6-.1.9 0c.8.4 1.8.2 2.4-.4.2-.2.5-.4.8-.4.3 0 .6.1.8.4.6.7 1.6.8 2.4.4.3-.1.6-.2.9 0 .3.1.5.3.6.6.3.8 1.2 1.4 2.1 1.3.3 0 .6.1.8.3.2.2.4.5.4.8 0 .9.6 1.7 1.5 1.9.3.1.5.3.7.6.1.3.2.6 0 .9-.3.8-.1 1.8.7 2.3.2.2.4.5.4.8 0 .3-.1.6-.3.8-.6.7-.7 1.7-.2 2.4.2.3.2.6.1.9-.1.3-.3.5-.6.7-.8.4-1.2 1.3-1.1 2.2.1.3 0 .6-.2.8-.2.2-.5.4-.8.4-.2 0-.4.1-.6.1h-.1c-.6.3-1 .8-1.1 1.4-.1.3-.2.6-.5.7-.3.2-.6.2-.9.1-.8-.2-1.6.1-2.1.7 0 .1-.1.1-.1.2-.2.3-.4.4-.7.5-.3.1-.6 0-.8-.2-.4-.3-.7-.4-1.1-.4zm5.5 8.2l-4.3-6.8c.2 0 .3.1.5.1h.4c.4-.1.7-.2 1-.5l3.3 5.2-.9 2zm2.1-4.1c-.3 0-.7.2-.8.5l-.2.5-3-4.8c.3-.2.6-.3.9-.2.4.1.8.1 1.2 0l2.6 4.1-.7-.1zm1.8.1l-2.9-4.6c.3-.3.5-.7.6-1.1 0-.2.1-.4.3-.6l4.1 6.4-2.1-.1z"/><circle class="st0" cx="55.6" cy="50.8" r="5.8"/><path class="st1" d="M58.7 48.4c-.1-.1-.3-.1-.4 0l-3.8 3.8-1.5-1.5c-.1-.1-.3-.1-.4 0-.1.1-.1.3 0 .4l1.7 1.7c.1.1.3.1.4 0l4-4c.1-.1.1-.3 0-.4z"/></svg>