<svg version="1.1" id="Layer_1" xmlns="http://www.w3.org/2000/svg" xmlns:xlink="http://www.w3.org/1999/xlink" x="0px" y="0px"
	 viewBox="0 0 85 54.3" style="enable-background:new 0 0 85 54.3;" xml:space="preserve">
<path d="M80,25.2c-0.1-1.5-1.1-2.7-2.7-2.9l-1.1-0.2L61.1,11.2C58.2,9,54.5,8.3,51,9.3c-1.2,0.3-2,1.7-1.7,2.9
	c0.3,1.2,1.7,2,2.9,1.7c2.1-0.5,4.3-0.2,6.1,1.1l9,6.6c-1.8,0-3.6,0.2-5.6,0.4c-2.8,0.4-5.6,1-8.3,1.7L52,24
	C46.4,25,40.8,25,35.2,24l-1.7-0.3c-2.7-0.8-5.6-1.4-8.4-1.7c-1.8-0.3-3.6-0.4-5.6-0.4l9-6.6c1.7-1.3,4-1.7,6.1-1.1
	c1.2,0.3,2.5-0.4,2.9-1.7c0.3-1.2-0.4-2.5-1.7-2.9c-3.5-1-7.1-0.2-10.1,1.9L10.8,22.3l-1.1,0.2c-1.4,0.1-2.5,1.3-2.5,2.8l-0.1,2.7
	c-0.1,1.3,0.7,2.4,1.7,2.8c0.4,0.2,0.8,0.6,0.8,1l0.3,5c0.6,6,5.6,10.6,11.6,10.8l5.6,0.2c4.2,0,7.9-2.1,10.2-5.6l4.4-7.8
	c0.3-0.4,1.1-0.6,1.8-0.6h0.3c0.7,0,1.6,0.2,1.7,0.5l4.5,8c2.2,3.6,6,5.6,10.1,5.6l5.6-0.2c6-0.2,10.9-4.8,11.6-10.8l0.3-4.9
	c0-0.4,0.3-0.8,0.6-1c1.1-0.5,1.9-1.6,1.8-2.9L80,25.2z M65.8,26.9c0.8,0,1.6,0.1,2.2,0.2c2,0.3,4,1.6,4.2,3.9l0.2,5
	c0.1,1.7-0.5,3.4-1.7,4.7c-1.1,1.3-2.8,2.1-4.5,2.1c0,0-4.3,0.2-4.6,0.2c-7.9,0-10.2-7.9-10.3-8.2c-0.3-1.5-0.2-3,0.8-4.3
	c0.8-1.3,2.2-2.2,3.6-2.4C60,27.2,63.3,26.9,65.8,26.9z M25.5,42.9c-0.3,0-4.6-0.2-4.6-0.2c-1.7-0.1-3.3-0.8-4.5-2.1
	c-1.1-1.3-1.7-3-1.7-4.7l0.2-5c0.1-2.4,2.1-3.6,4.2-3.9c2.4-0.3,6.5,0,12.3,1c1.5,0.3,2.9,1.1,3.6,2.4c0.8,1.3,1.1,2.9,0.8,4.3
	C35.7,35,33.4,42.9,25.5,42.9z"/>
</svg>
