<?xml version="1.0" encoding="utf-8"?>
<!-- Generator: Adobe Illustrator 24.3.0, SVG Export Plug-In . SVG Version: 6.00 Build 0)  -->
<svg version="1.1" id="Layer_1" xmlns="http://www.w3.org/2000/svg" xmlns:xlink="http://www.w3.org/1999/xlink" x="0px" y="0px"
	 viewBox="0 0 88 88" style="enable-background:new 0 0 88 88;" xml:space="preserve">
<style type="text/css">
	.st0{fill:#06AB45;}
	.st1{fill:#FFFFFF;}
</style>
<g>
	<rect x="29.9" y="43.1" width="3.2" height="1.6"/>
</g>
<g>
	<path d="M45.3,29v-1.8h2.2v-1.6h-6.3v1.6h2.4v1.8c-8.1,0.2-14.6,6.9-14.6,15c0,8.3,6.7,15,15,15s15-6.7,15-15
		C59.1,36,53,29.6,45.3,29z M45.3,57.2v-2.7h-1.6v2.8c-7.2-0.2-12.9-6.1-12.9-13.4c0-7.2,5.8-13.1,13-13.4V33h1.6v-2.4
		c6.8,0.6,12.2,6.3,12.2,13.3C57.5,50.9,52.1,56.6,45.3,57.2z"/>
	<polygon points="43.7,42.8 35.2,42.8 35.2,44.4 44.9,44.4 44.9,44.3 45.3,44.3 45.3,34.3 43.7,34.3 	"/>
</g>
<g>
	<circle class="st0" cx="56.6" cy="50.8" r="5.8"/>
</g>
<g>
	<g>
		<g>
			<path class="st1" d="M59.7,48.4c-0.1-0.1-0.3-0.1-0.4,0l-3.8,3.8L54,50.7c-0.1-0.1-0.3-0.1-0.4,0c-0.1,0.1-0.1,0.3,0,0.4l1.7,1.7
				c0.1,0.1,0.3,0.1,0.4,0l4-4C59.8,48.7,59.8,48.5,59.7,48.4z"/>
		</g>
	</g>
</g>
</svg>
