<?xml version="1.0" encoding="utf-8"?>
<!-- Generator: Adobe Illustrator 24.3.0, SVG Export Plug-In . SVG Version: 6.00 Build 0)  -->
<svg version="1.1" id="Layer_1" xmlns="http://www.w3.org/2000/svg" xmlns:xlink="http://www.w3.org/1999/xlink" x="0px" y="0px"
	 viewBox="0 0 88 88" style="enable-background:new 0 0 88 88;" xml:space="preserve">
<style type="text/css">
	.st0{fill:#06AB45;}
	.st1{fill:#FFFFFF;}
</style>
<g>
	<path d="M35.6,39.8c0.3,0,0.5-0.1,0.5-0.4c0.5-3.9,3.9-6.9,7.9-6.9c4,0,7.4,3,7.9,6.9c0,0.2,0.2,0.4,0.5,0.4c0,0,0,0,0.1,0
		c0.3,0,0.4-0.3,0.4-0.5c-0.3-2.1-1.3-4.1-2.9-5.5c-1.6-1.4-3.7-2.2-5.9-2.2c-2.2,0-4.3,0.8-5.9,2.2c-1.6,1.4-2.7,3.4-2.9,5.5
		C35.1,39.5,35.3,39.7,35.6,39.8z"/>
	<path d="M52.9,41.6c0-0.3-0.2-0.5-0.4-0.5c-0.3,0-0.5,0.2-0.5,0.4c-0.5,4-3.9,7-7.9,7c-4,0-7.4-3-7.9-7c0-0.3-0.3-0.4-0.5-0.4
		c-0.3,0-0.4,0.3-0.4,0.5c0.5,4.5,4.4,7.8,8.9,7.8C48.5,49.4,52.4,46,52.9,41.6z"/>
	<path d="M41.3,43.4L41.3,43.4c-0.3,0-0.6,0.3-0.6,0.6v1.4c0,0.3,0.3,0.6,0.6,0.6h5.5c0.3,0,0.6-0.3,0.6-0.6V44
		c0-0.3-0.3-0.6-0.6-0.6h-1.1v-8c0-0.3-0.3-0.6-0.6-0.6h-1.6c-0.1,0-0.3,0.1-0.4,0.1l-2.9,2.4c-0.3,0.2-0.3,0.6-0.1,0.8l0.9,1.2
		c0.1,0.1,0.2,0.2,0.4,0.2c0.2,0,0.3,0,0.5-0.1l0.7-0.5v4.5H41.3z M43.2,37.7c-0.2-0.1-0.5-0.1-0.6,0.1l-0.9,0.8l-0.5-0.7l2.5-2.1
		h1.1v8c0,0.3,0.3,0.6,0.6,0.6h1.1v0.8h-4.8v-0.8H43c0.3,0,0.6-0.3,0.6-0.6v-5.5C43.6,38,43.4,37.8,43.2,37.7z"/>
	<path d="M56.8,55.2l-4.2-6.6c0.5-0.1,0.9-0.4,1.2-0.8c0.3-0.5,0.5-1,0.4-1.6c-0.1-0.5,0.1-0.9,0.6-1.2c0.5-0.3,0.9-0.7,1-1.3
		c0.2-0.5,0.1-1.1-0.2-1.6c-0.3-0.4-0.2-0.9,0.1-1.3c0.4-0.4,0.6-1,0.5-1.5c-0.1-0.6-0.3-1.1-0.8-1.4c-0.4-0.3-0.5-0.8-0.4-1.2
		c0.2-0.5,0.2-1.1-0.1-1.6c-0.3-0.5-0.7-0.9-1.3-1c-0.5-0.1-0.8-0.6-0.8-1c0-0.6-0.2-1.1-0.7-1.5c-0.4-0.4-1-0.6-1.5-0.5
		c-0.5,0-0.9-0.2-1.1-0.7c-0.2-0.5-0.6-0.9-1.1-1.1c-0.5-0.2-1.1-0.2-1.6,0.1c-0.4,0.2-1,0.1-1.3-0.2c-0.4-0.4-0.9-0.7-1.5-0.7
		c-0.6,0-1.1,0.2-1.5,0.7c-0.3,0.4-0.8,0.5-1.3,0.2c-0.5-0.3-1.1-0.3-1.6-0.1c-0.5,0.2-0.9,0.6-1.2,1.1c-0.2,0.4-0.6,0.7-1.1,0.7
		c-0.6-0.1-1.1,0.1-1.5,0.5c-0.4,0.4-0.7,0.9-0.7,1.5c0,0.5-0.3,0.9-0.8,1c-0.5,0.2-1,0.5-1.3,1c-0.3,0.5-0.3,1.1-0.1,1.6
		c0.2,0.4,0,1-0.4,1.2c-0.5,0.3-0.7,0.9-0.8,1.4c-0.1,0.6,0.1,1.1,0.5,1.5c0.3,0.4,0.4,0.9,0.1,1.3c-0.3,0.5-0.4,1.1-0.2,1.6
		c0.2,0.5,0.5,1,1,1.3c0.4,0.2,0.7,0.7,0.6,1.2c-0.1,0.6,0,1.1,0.4,1.6c0.3,0.4,0.7,0.7,1.2,0.8l-4.2,6.6c-0.2,0.2-0.2,0.5,0,0.8
		c0.1,0.2,0.4,0.4,0.7,0.4l4.1-0.4l1.4,3.9c0.1,0.3,0.3,0.5,0.6,0.5c0,0,0.1,0,0.1,0c0.3,0,0.5-0.1,0.6-0.3L44,52l5.2,8.1
		c0.1,0.2,0.4,0.3,0.6,0.3c0,0,0.1,0,0.1,0c0.3,0,0.5-0.2,0.6-0.5l1.4-3.9l4.1,0.4c0.3,0,0.6-0.1,0.7-0.4
		C56.9,55.8,56.9,55.5,56.8,55.2z M32.3,55.4l4.1-6.4c0.1,0.1,0.3,0.3,0.3,0.6c0.1,0.4,0.3,0.8,0.6,1.1l-2.9,4.6L32.3,55.4z
		 M37.2,56.1L37,55.6c-0.1-0.3-0.4-0.5-0.8-0.5l-0.7,0.1l2.6-4.1c0.4,0.1,0.8,0.1,1.2,0c0.3-0.1,0.7,0,0.9,0.2L37.2,56.1z
		 M38.3,59.2l-0.7-2.1l3.3-5.2c0.3,0.2,0.6,0.4,1,0.5c0.3,0.1,0.6,0,0.8,0L38.3,59.2z M44.3,51C44.3,51,44.3,51,44.3,51
		c-0.2,0-0.2,0-0.3,0c-0.1,0-0.1,0-0.2,0c0,0-0.1,0-0.1,0c-0.3,0-0.6,0.2-0.9,0.4c-0.2,0.2-0.5,0.3-0.8,0.2
		c-0.3-0.1-0.6-0.2-0.7-0.5c0-0.1-0.1-0.1-0.1-0.2c0,0,0,0,0,0c-0.5-0.6-1.3-0.9-2.1-0.7c-0.3,0.1-0.6,0-0.9-0.1
		c-0.3-0.2-0.4-0.4-0.5-0.7c-0.1-0.6-0.5-1.2-1.1-1.4c0,0-0.1,0-0.1,0c-0.2-0.1-0.4-0.1-0.6-0.1c-0.3,0-0.6-0.2-0.8-0.4
		c-0.2-0.2-0.3-0.5-0.2-0.8c0.2-0.9-0.3-1.8-1.1-2.2c-0.3-0.1-0.5-0.4-0.6-0.7c-0.1-0.3,0-0.6,0.1-0.9c0.5-0.8,0.4-1.8-0.2-2.4
		c-0.2-0.2-0.3-0.5-0.3-0.8c0-0.3,0.2-0.6,0.4-0.8c0.7-0.5,1-1.5,0.7-2.3c-0.1-0.3-0.1-0.6,0-0.9c0.1-0.3,0.4-0.5,0.7-0.6
		c0.9-0.2,1.5-1,1.5-1.9c0-0.3,0.1-0.6,0.4-0.8c0.2-0.2,0.5-0.3,0.8-0.3c0.9,0.1,1.7-0.4,2.1-1.3c0.1-0.3,0.3-0.5,0.6-0.6
		s0.6-0.1,0.9,0c0.8,0.4,1.8,0.2,2.4-0.4c0.2-0.2,0.5-0.4,0.8-0.4c0.3,0,0.6,0.1,0.8,0.4c0.6,0.7,1.6,0.8,2.4,0.4
		c0.3-0.1,0.6-0.2,0.9,0c0.3,0.1,0.5,0.3,0.6,0.6c0.3,0.8,1.2,1.4,2.1,1.3c0.3,0,0.6,0.1,0.8,0.3c0.2,0.2,0.4,0.5,0.4,0.8
		c0,0.9,0.6,1.7,1.5,1.9c0.3,0.1,0.5,0.3,0.7,0.6c0.1,0.3,0.2,0.6,0,0.9c-0.3,0.8-0.1,1.8,0.7,2.3c0.2,0.2,0.4,0.5,0.4,0.8
		c0,0.3-0.1,0.6-0.3,0.8c-0.6,0.7-0.7,1.7-0.2,2.4c0.2,0.3,0.2,0.6,0.1,0.9c-0.1,0.3-0.3,0.5-0.6,0.7c-0.8,0.4-1.2,1.3-1.1,2.2
		c0.1,0.3,0,0.6-0.2,0.8c-0.2,0.2-0.5,0.4-0.8,0.4c-0.2,0-0.4,0.1-0.6,0.1c0,0-0.1,0-0.1,0c-0.6,0.3-1,0.8-1.1,1.4
		c-0.1,0.3-0.2,0.6-0.5,0.7c-0.3,0.2-0.6,0.2-0.9,0.1c-0.8-0.2-1.6,0.1-2.1,0.7c0,0,0,0,0,0c0,0.1-0.1,0.1-0.1,0.2
		c-0.2,0.3-0.4,0.4-0.7,0.5c-0.3,0.1-0.6,0-0.8-0.2C45,51.1,44.7,51,44.3,51z M49.8,59.2l-4.3-6.8c0.2,0,0.3,0.1,0.5,0.1
		c0.1,0,0.2,0,0.4,0c0.4-0.1,0.7-0.2,1-0.5l3.3,5.2L49.8,59.2z M51.9,55.1c-0.3,0-0.7,0.2-0.8,0.5l-0.2,0.5l-3-4.8
		c0.3-0.2,0.6-0.3,0.9-0.2c0.4,0.1,0.8,0.1,1.2,0l2.6,4.1L51.9,55.1z M53.7,55.2l-2.9-4.6c0.3-0.3,0.5-0.7,0.6-1.1
		c0-0.2,0.1-0.4,0.3-0.6l4.1,6.4L53.7,55.2z"/>
</g>
<g>
	<circle class="st0" cx="55.6" cy="50.8" r="5.8"/>
</g>
<g>
	<g>
		<g>
			<path class="st1" d="M58.7,48.4c-0.1-0.1-0.3-0.1-0.4,0l-3.8,3.8L53,50.7c-0.1-0.1-0.3-0.1-0.4,0c-0.1,0.1-0.1,0.3,0,0.4l1.7,1.7
				c0.1,0.1,0.3,0.1,0.4,0l4-4C58.8,48.7,58.8,48.5,58.7,48.4z"/>
		</g>
	</g>
</g>
</svg>
